<svg xmlns="http://www.w3.org/2000/svg" xmlns:xlink="http://www.w3.org/1999/xlink" width="512" height="512" viewBox="0 0 512 512"><defs><clipPath id="b"><rect width="512" height="512"/></clipPath></defs><g id="a" clip-path="url(#b)"><rect width="295" height="411" rx="7" transform="translate(31 51)" fill="#fff"/><rect width="239" height="135" transform="translate(59 224)" fill="#51b0f8"/><rect width="239" height="47" transform="translate(59 75)" fill="#929292"/><rect width="239" height="15" transform="translate(59 140)" fill="#dfdfdf"/><rect width="239" height="15" transform="translate(59 164)" fill="#dfdfdf"/><rect width="239" height="15" transform="translate(59 188)" fill="#dfdfdf"/><rect width="239" height="15" transform="translate(59 377)" fill="#dfdfdf"/><rect width="239" height="15" transform="translate(59 401)" fill="#dfdfdf"/><rect width="239" height="15" transform="translate(59 425)" fill="#dfdfdf"/><rect width="132" height="411" rx="7" transform="translate(350 51)" fill="#fff"/><rect width="93" height="15" transform="translate(370 75)" fill="#dfdfdf"/><rect width="93" height="15" transform="translate(370 99)" fill="#51b0f8" opacity="0.45"/><rect width="93" height="15" transform="translate(370 123)" fill="#dfdfdf"/><rect width="93" height="15" transform="translate(370 147)" fill="#dfdfdf"/><rect width="93" height="15" transform="translate(370 171)" fill="#dfdfdf"/><rect width="78" height="15" transform="translate(385 195)" fill="#dfdfdf"/><rect width="78" height="15" transform="translate(385 219)" fill="#dfdfdf"/><rect width="78" height="15" transform="translate(385 243)" fill="#dfdfdf"/><rect width="93" height="15" transform="translate(370 267)" fill="#dfdfdf"/><rect width="78" height="15" transform="translate(385 291)" fill="#dfdfdf"/><rect width="78" height="15" transform="translate(385 315)" fill="#dfdfdf"/><rect width="78" height="15" transform="translate(385 339)" fill="#dfdfdf"/><rect width="78" height="15" transform="translate(385 363)" fill="#dfdfdf"/><rect width="93" height="15" transform="translate(370 387)" fill="#dfdfdf"/><rect width="78" height="15" transform="translate(385 411)" fill="#dfdfdf"/><rect width="78" height="15" transform="translate(385 435)" fill="#dfdfdf"/></g></svg>